# xmcd
#
# Track frame offsets:
#	150
#	9951
#	19341
#	27574
#	41339
#	49287
#	64100
#	73057
#	83395
#	96128
#	111297
#	126872
#	137114
#	152973
#	163918
#
# Disc length: 2331 seconds
#
# Revision: 1
# Processed by: cddbd v1.5.2PL0 Copyright (c) Steve Scherf et al.
# Submitted via: audiograbber 1.80
#
DISCID=ca09190f
DTITLE=Berryman and Bullet - Biscuits
DYEAR=1900
DGENRE=
TTITLE0=keep it clean
TTITLE1=shake it and brake it
TTITLE2=biscuits
TTITLE3=travelin' man
TTITLE4=sweet jivin' mama
TTITLE5=moon is risin'
TTITLE6=rope stretching blues
TTITLE7=pt. VI
TTITLE8=too tight blues
TTITLE9=moanin' the size blues
TTITLE10=gotta think it evil
TTITLE11=jealousy blues
TTITLE12=good gal
TTITLE13=black dog blues
TTITLE14=the cricket
EXTD=
EXTT0=
EXTT1=
EXTT2=
EXTT3=
EXTT4=
EXTT5=
EXTT6=
EXTT7=
EXTT8=
EXTT9=
EXTT10=
EXTT11=
EXTT12=
EXTT13=
EXTT14=
PLAYORDER=
